<svg width="64" height="64" viewBox="0 0 64 64" fill="none" xmlns="http://www.w3.org/2000/svg">
<rect width="64" height="64" rx="4" fill="#370476"/>
<g clip-path="url(#clip0_10617_5735)">
<path d="M31.84 14.0158C21.8693 14.0158 13.76 22.1251 13.76 32.0958C13.76 42.0665 21.8693 50.1758 31.84 50.1758C41.8107 50.1758 49.92 42.0665 49.92 32.0958C49.92 22.1251 41.8107 14.0158 31.84 14.0158ZM15.5858 32.0958C15.5858 29.74 16.0935 27.5001 16.993 25.4783L24.746 46.7245C19.322 44.0883 15.5858 38.5307 15.5858 32.0958ZM31.84 48.35C30.2458 48.35 28.7049 48.1139 27.2487 47.6864L32.125 33.5164L37.1215 47.2055C37.1527 47.2857 37.1927 47.3614 37.2373 47.4282C35.5495 48.0249 33.7326 48.35 31.84 48.35ZM34.08 24.4719C35.0597 24.4185 35.9414 24.316 35.9414 24.316C36.8187 24.2136 36.7118 22.9266 35.839 22.9756C35.839 22.9756 33.2071 23.1805 31.506 23.1805C29.9073 23.1805 27.2265 22.9756 27.2265 22.9756C26.3492 22.9222 26.2468 24.2626 27.1241 24.316C27.1241 24.316 27.9524 24.4185 28.8296 24.4719L31.3635 31.41L27.8054 42.0799L21.8826 24.4719C22.8623 24.4185 23.7441 24.316 23.7441 24.316C24.6214 24.2136 24.5145 22.9266 23.6417 22.9756C23.6417 22.9756 21.0098 23.1805 19.3087 23.1805C19.0059 23.1805 18.6452 23.1716 18.2622 23.1627C21.1657 18.754 26.1622 15.8416 31.84 15.8416C36.0705 15.8416 39.927 17.4581 42.8171 20.1078C42.7459 20.1033 42.6791 20.0944 42.6078 20.0944C41.0091 20.0944 39.878 21.4838 39.878 22.9801C39.878 24.3205 40.6529 25.4516 41.4767 26.792C42.0957 27.8741 42.8171 29.2635 42.8171 31.2764C42.8171 32.6658 42.2828 34.2823 41.5792 36.5312L39.9582 41.9463L34.08 24.4719ZM46.1036 24.2982C47.3728 26.6139 48.0942 29.2725 48.0942 32.0958C48.0942 38.0942 44.8433 43.3268 40.0116 46.1456L44.9769 31.7885C45.9032 29.4684 46.2149 27.6159 46.2149 25.9682C46.2149 25.3714 46.1749 24.8148 46.1036 24.2982Z" fill="white"/>
</g>
<defs>
<clipPath id="clip0_10617_5735">
<rect width="36.16" height="36.16" fill="white" transform="translate(13.76 14.0158)"/>
</clipPath>
</defs>
</svg>
