<svg width="672" height="852" viewBox="0 0 672 852" fill="none" xmlns="http://www.w3.org/2000/svg">
<g clip-path="url(#clip0_10029_1905)">
<rect width="1175" height="852" transform="translate(-255)" fill="#0111FF"/>
<g filter="url(#filter0_f_10029_1905)">
<path d="M495.58 246.454L-156.334 21.5774C-414.147 -67.0104 -617.445 -270.308 -706.032 -528.121L-930.909 -1180.04C-961.574 -1269.76 -1089.91 -1269.76 -1120.58 -1180.04L-1345.45 -528.121C-1434.04 -270.308 -1637.34 -67.0104 -1895.15 21.5774L-2547.07 246.454C-2636.79 277.119 -2636.79 405.457 -2547.07 436.122L-1895.15 660.999C-1637.34 749.587 -1434.04 952.884 -1345.45 1210.7L-1120.58 1862.61C-1089.91 1952.33 -961.574 1952.33 -930.909 1862.61L-706.032 1210.7C-617.445 952.884 -414.147 749.587 -156.334 660.999L495.58 436.122C585.304 405.457 585.304 277.119 495.58 246.454ZM-265.365 389.557L-591.323 501.995C-720.797 546.289 -821.878 648.506 -866.172 776.844L-978.61 1102.8C-994.51 1148.23 -1058.11 1148.23 -1074.01 1102.8L-1186.45 776.844C-1230.74 647.37 -1332.96 546.289 -1461.3 501.995L-1787.26 389.557C-1832.69 373.657 -1832.69 310.055 -1787.26 294.155L-1461.3 181.717C-1331.82 137.423 -1230.74 35.2062 -1186.45 -93.1324L-1074.01 -419.09C-1058.11 -464.519 -994.51 -464.519 -978.61 -419.09L-866.172 -93.1324C-821.878 36.3419 -719.661 137.423 -591.323 181.717L-265.365 294.155C-219.936 310.055 -219.936 373.657 -265.365 389.557Z" fill="white"/>
</g>
<path d="M293.424 371.613L263.267 361.21C251.341 357.112 241.936 347.708 237.838 335.782L227.436 305.625C226.017 301.474 220.08 301.474 218.662 305.625L208.259 335.782C204.161 347.708 194.757 357.112 182.831 361.21L152.673 371.613C148.523 373.032 148.523 378.968 152.673 380.387L182.831 390.79C194.757 394.888 204.161 404.292 208.259 416.218L218.662 446.375C220.08 450.526 226.017 450.526 227.436 446.375L237.838 416.218C241.936 404.292 251.341 394.888 263.267 390.79L293.424 380.387C297.575 378.968 297.575 373.032 293.424 371.613ZM258.223 378.233L243.145 383.434C237.155 385.483 232.479 390.212 230.43 396.149L225.229 411.227C224.494 413.329 221.551 413.329 220.816 411.227L215.615 396.149C213.566 390.159 208.837 385.483 202.9 383.434L187.822 378.233C185.72 377.497 185.72 374.555 187.822 373.82L202.9 368.618C208.89 366.569 213.566 361.841 215.615 355.904L220.816 340.825C221.551 338.724 224.494 338.724 225.229 340.825L230.43 355.904C232.479 361.893 237.208 366.569 243.145 368.618L258.223 373.82C260.325 374.555 260.325 377.497 258.223 378.233Z" fill="#0111FF"/>
<g filter="url(#filter1_f_10029_1905)">
<path d="M431.987 370.267L392.591 356.678C377.011 351.324 364.725 339.039 359.372 323.459L345.782 284.063C343.929 278.641 336.173 278.641 334.32 284.063L320.731 323.459C315.377 339.039 303.092 351.324 287.512 356.678L248.115 370.267C242.693 372.121 242.693 379.876 248.115 381.729L287.512 395.319C303.092 400.673 315.377 412.958 320.731 428.538L334.32 467.934C336.173 473.356 343.929 473.356 345.782 467.934L359.372 428.538C364.725 412.958 377.011 400.673 392.591 395.319L431.987 381.729C437.409 379.876 437.409 372.121 431.987 370.267ZM386.002 378.915L366.304 385.71C358.48 388.387 352.371 394.564 349.694 402.32L342.9 422.018C341.939 424.763 338.095 424.763 337.134 422.018L330.339 402.32C327.663 394.495 321.486 388.387 313.73 385.71L294.032 378.915C291.286 377.955 291.286 374.111 294.032 373.15L313.73 366.355C321.554 363.679 327.663 357.501 330.339 349.746L337.134 330.048C338.095 327.302 341.939 327.302 342.9 330.048L349.694 349.746C352.371 357.57 358.548 363.679 366.304 366.355L386.002 373.15C388.747 374.111 388.747 377.955 386.002 378.915Z" fill="#0111FF"/>
</g>
<g filter="url(#filter2_f_10029_1905)">
<path d="M645.559 367.214L585.175 346.384C561.295 338.179 542.465 319.348 534.259 295.468L513.43 235.085C510.59 226.774 498.702 226.774 495.862 235.085L475.033 295.468C466.827 319.348 447.997 338.179 424.117 346.384L363.733 367.214C355.422 370.054 355.422 381.941 363.733 384.782L424.117 405.611C447.997 413.816 466.827 432.647 475.033 456.527L495.862 516.911C498.702 525.221 510.59 525.221 513.43 516.911L534.259 456.527C542.465 432.647 561.295 413.816 585.175 405.611L645.559 384.782C653.87 381.941 653.87 370.054 645.559 367.214ZM575.076 380.469L544.884 390.883C532.892 394.986 523.529 404.454 519.426 416.341L509.012 446.533C507.539 450.741 501.648 450.741 500.175 446.533L489.761 416.341C485.658 404.349 476.19 394.986 464.303 390.883L434.111 380.469C429.903 378.996 429.903 373.105 434.111 371.632L464.303 361.217C476.295 357.115 485.658 347.647 489.761 335.759L500.175 305.567C501.648 301.359 507.539 301.359 509.012 305.567L519.426 335.759C523.529 347.752 532.997 357.115 544.884 361.217L575.076 371.632C579.284 373.105 579.284 378.996 575.076 380.469Z" fill="#0111FF"/>
</g>
</g>
<defs>
<filter id="filter0_f_10029_1905" x="-2864.36" y="-1497.33" width="3677.23" height="3677.23" filterUnits="userSpaceOnUse" color-interpolation-filters="sRGB">
<feFlood flood-opacity="0" result="BackgroundImageFix"/>
<feBlend mode="normal" in="SourceGraphic" in2="BackgroundImageFix" result="shape"/>
<feGaussianBlur stdDeviation="125" result="effect1_foregroundBlur_10029_1905"/>
</filter>
<filter id="filter1_f_10029_1905" x="224.049" y="259.996" width="232.005" height="232.005" filterUnits="userSpaceOnUse" color-interpolation-filters="sRGB">
<feFlood flood-opacity="0" result="BackgroundImageFix"/>
<feBlend mode="normal" in="SourceGraphic" in2="BackgroundImageFix" result="shape"/>
<feGaussianBlur stdDeviation="10" result="effect1_foregroundBlur_10029_1905"/>
</filter>
<filter id="filter2_f_10029_1905" x="297.5" y="168.852" width="414.292" height="414.292" filterUnits="userSpaceOnUse" color-interpolation-filters="sRGB">
<feFlood flood-opacity="0" result="BackgroundImageFix"/>
<feBlend mode="normal" in="SourceGraphic" in2="BackgroundImageFix" result="shape"/>
<feGaussianBlur stdDeviation="30" result="effect1_foregroundBlur_10029_1905"/>
</filter>
<clipPath id="clip0_10029_1905">
<rect width="1175" height="852" fill="white" transform="translate(-255)"/>
</clipPath>
</defs>
</svg>
