<svg id="Layer_1" data-name="Layer 1" xmlns="http://www.w3.org/2000/svg" viewBox="0 0 672.48 146.13"><defs><style>.cls-1{fill:#059bd2;}.cls-2,.cls-3{fill:#fc6600;}.cls-2{fill-rule:evenodd;}</style></defs><path class="cls-1" d="M224.56,341.57s-7.13-8.71-11.3-13.42l-5.89,13.9c8.47,12.63,14.08,23.49,17.15,28.69,6-10.17,20.67-40.39,51-68.67l-3.35-7.89c-19.72,14.57-36.51,33.19-47.65,47.39" transform="translate(-156.2 -231.53)"/><path class="cls-2" d="M528.15,344.44c0,8.09,4.71,12.28,12.16,13.51v19.71C518,377.38,506,366.52,506,346V231.53h22.14Z" transform="translate(-156.2 -231.53)"/><path class="cls-2" d="M597.57,274.14c-27.68,0-49.64,22.74-49.64,51.42S569.1,377,595.58,377c13.46,0,24.34-5.14,30.67-12.45l1.18.39V375h22.15V276.12H627.43v6.93l-1,.39c-6.52-5.54-15.62-9.3-28.87-9.3m2.76,84.25c-16.59,0-30.25-14.43-30.25-32.83,0-18.59,13.66-32.83,30.25-32.83,10.88,0,20.38,3.17,27.1,8.31v42.32c-5.73,10.88-16,15-27.1,15" transform="translate(-156.2 -231.53)"/><path class="cls-2" d="M668.05,375.2h22.14V306a38.48,38.48,0,0,1,27.9-11.67h4.75V274.15h-2.78a37,37,0,0,0-28.68,13.64l-1.19-.39V276.12H668.05Z" transform="translate(-156.2 -231.53)"/><path class="cls-2" d="M435.85,274.14c-27.68,0-49.64,22.74-49.64,51.42S407.37,377,433.87,377c13.45,0,24.33-5.14,30.65-12.45l1.19.39V375h22.16V276.12H465.71v6.93l-1,.39c-6.52-5.54-15.62-9.3-28.87-9.3m2.76,84.25c-16.61,0-30.26-14.43-30.26-32.83,0-18.59,13.65-32.83,30.26-32.83,10.88,0,20.38,3.17,27.1,8.31v42.32c-5.73,10.88-16,15-27.1,15" transform="translate(-156.2 -231.53)"/><path class="cls-2" d="M776.66,274.14C749,274.14,727,296.88,727,325.56S748.19,377,774.68,377c13.45,0,24.33-5.14,30.66-12.45l1.18.39V375h22.16V276.12H806.52v6.93l-1,.39c-6.53-5.54-15.62-9.3-28.88-9.3m2.77,84.25c-16.61,0-30.25-14.43-30.25-32.83,0-18.59,13.64-32.83,30.25-32.83,10.88,0,20.37,3.17,27.09,8.31v42.32c-5.74,10.88-16,15-27.09,15" transform="translate(-156.2 -231.53)"/><path class="cls-3" d="M268.77,374.87h24.06l-21.23-50.8a226.33,226.33,0,0,0-16.2,19.28Z" transform="translate(-156.2 -231.53)"/><polygon class="cls-3" points="208.36 44.72 177.46 116.98 177.22 116.98 177.04 116.98 176.92 116.98 176.8 116.98 176.67 116.98 176.5 116.98 176.25 116.98 145.36 44.72 121.49 44.72 165.59 143.32 165.6 143.34 165.85 143.34 187.87 143.34 188.11 143.34 188.12 143.32 232.23 44.72 208.36 44.72"/><path class="cls-3" d="M235.14,236.8H213.89L156.2,374.87h24.05L222,276.47l2-5.34h1.12l2,5.34,12.36,29.16a232,232,0,0,1,17.8-16Z" transform="translate(-156.2 -231.53)"/></svg>